# xmcd
#
# Track frame offsets:
#	150
#	31056
#	46863
#	102869
#	119519
#	160231
#	176812
#	233757
#	268201
#	291518
#	298602
#	326539
#	334157
#
# Disc length: 4577 seconds
# Revision: 0
# Processed by: cddbd v1.5.2PL0 Copyright (c) Steve Scherf et al.
# Submitted via: dBpowerAMP V12.0
#
DISCID=c111df0d
DTITLE=Andrew Liles - The Flesh Creeping Gonzoid and Other Imaginary Creatures-Volume 1
DYEAR=2011
DGENRE=Industrial
TTITLE0=Channelling Tunnel
TTITLE1=Thick Thighs Surprise
TTITLE2=Decimate (Component Element 7.1)
TTITLE3=Water Damaged Crinkle Mag
TTITLE4=Denigrate (Component Element Of Part 14)
TTITLE5=A Stash Of Gash For Playground Cash
TTITLE6=Yet From Another Planet and Not Of This Earth
TTITLE7=Golden
TTITLE8=Dessicate (Component Building Block 4)
TTITLE9=Galvanised And Vilified
TTITLE10=53717NR848499C
TTITLE11=An Exact Science (In Theory)
TTITLE12=The Venemous Shrew Or Sweeping Sooterkins (Version One)
EXTD=
EXTT0=
EXTT1=
EXTT2=
EXTT3=
EXTT4=
EXTT5=
EXTT6=
EXTT7=
EXTT8=
EXTT9=
EXTT10=
EXTT11=
EXTT12=
PLAYORDER=
